<mxfile host="app.diagrams.net" modified="2021-08-03T02:04:26.871Z" agent="5.0 (Windows NT 6.1; Win64; x64) AppleWebKit/537.36 (KHTML, like Gecko) Chrome/92.0.4515.107 Safari/537.36" etag="Ng6dOLeBD7qk1i2uZKfj" version="14.8.5" type="github">
  <diagram id="QPfnh-mpBDKSe8OGBJDT" name="rotate_array">
    <mxGraphModel dx="1304" dy="529" grid="1" gridSize="10" guides="1" tooltips="1" connect="1" arrows="1" fold="1" page="1" pageScale="1" pageWidth="1800" pageHeight="1000" math="0" shadow="0">
      <root>
        <mxCell id="0" />
        <mxCell id="1" parent="0" />
        <mxCell id="Ruj4pEIZxkWLNFvjBIL3-1" value="" style="whiteSpace=wrap;html=1;fillColor=#21C0A5;strokeColor=#006658;fontColor=#5C5C5C;" vertex="1" parent="1">
          <mxGeometry x="240" y="120" width="80" height="80" as="geometry" />
        </mxCell>
        <mxCell id="Ruj4pEIZxkWLNFvjBIL3-2" value="" style="whiteSpace=wrap;html=1;fillColor=#21C0A5;strokeColor=#006658;fontColor=#5C5C5C;" vertex="1" parent="1">
          <mxGeometry x="320" y="120" width="80" height="80" as="geometry" />
        </mxCell>
        <mxCell id="Ruj4pEIZxkWLNFvjBIL3-3" value="" style="whiteSpace=wrap;html=1;fillColor=#21C0A5;strokeColor=#006658;fontColor=#5C5C5C;" vertex="1" parent="1">
          <mxGeometry x="400" y="120" width="80" height="80" as="geometry" />
        </mxCell>
        <mxCell id="Ruj4pEIZxkWLNFvjBIL3-4" value="" style="whiteSpace=wrap;html=1;fillColor=#21C0A5;strokeColor=#006658;fontColor=#5C5C5C;" vertex="1" parent="1">
          <mxGeometry x="480" y="120" width="80" height="80" as="geometry" />
        </mxCell>
        <mxCell id="Ruj4pEIZxkWLNFvjBIL3-5" value="" style="whiteSpace=wrap;html=1;fillColor=#21C0A5;strokeColor=#006658;fontColor=#5C5C5C;" vertex="1" parent="1">
          <mxGeometry x="560" y="120" width="80" height="80" as="geometry" />
        </mxCell>
        <mxCell id="Ruj4pEIZxkWLNFvjBIL3-6" value="" style="whiteSpace=wrap;html=1;fillColor=#21C0A5;strokeColor=#006658;fontColor=#5C5C5C;" vertex="1" parent="1">
          <mxGeometry x="640" y="120" width="80" height="80" as="geometry" />
        </mxCell>
        <mxCell id="Ruj4pEIZxkWLNFvjBIL3-7" value="" style="whiteSpace=wrap;html=1;fillColor=#21C0A5;strokeColor=#006658;fontColor=#5C5C5C;" vertex="1" parent="1">
          <mxGeometry x="720" y="120" width="80" height="80" as="geometry" />
        </mxCell>
        <mxCell id="Ruj4pEIZxkWLNFvjBIL3-8" value="1" style="text;html=1;strokeColor=none;fillColor=none;align=center;verticalAlign=middle;whiteSpace=wrap;fontFamily=Times New Roman;fontSize=30;fontColor=#5C5C5C;" vertex="1" parent="1">
          <mxGeometry x="260" y="150" width="40" height="20" as="geometry" />
        </mxCell>
        <mxCell id="Ruj4pEIZxkWLNFvjBIL3-9" value="2" style="text;html=1;strokeColor=none;fillColor=none;align=center;verticalAlign=middle;whiteSpace=wrap;fontFamily=Times New Roman;fontSize=30;fontColor=#5C5C5C;" vertex="1" parent="1">
          <mxGeometry x="340" y="150" width="40" height="20" as="geometry" />
        </mxCell>
        <mxCell id="Ruj4pEIZxkWLNFvjBIL3-10" value="3" style="text;html=1;strokeColor=none;fillColor=none;align=center;verticalAlign=middle;whiteSpace=wrap;fontFamily=Times New Roman;fontSize=30;fontColor=#5C5C5C;" vertex="1" parent="1">
          <mxGeometry x="420" y="150" width="40" height="20" as="geometry" />
        </mxCell>
        <mxCell id="Ruj4pEIZxkWLNFvjBIL3-11" value="4" style="text;html=1;strokeColor=none;fillColor=none;align=center;verticalAlign=middle;whiteSpace=wrap;fontFamily=Times New Roman;fontSize=30;fontColor=#5C5C5C;" vertex="1" parent="1">
          <mxGeometry x="500" y="150" width="40" height="20" as="geometry" />
        </mxCell>
        <mxCell id="Ruj4pEIZxkWLNFvjBIL3-12" value="5" style="text;html=1;strokeColor=none;fillColor=none;align=center;verticalAlign=middle;whiteSpace=wrap;fontFamily=Times New Roman;fontSize=30;fontColor=#5C5C5C;" vertex="1" parent="1">
          <mxGeometry x="580" y="150" width="40" height="20" as="geometry" />
        </mxCell>
        <mxCell id="Ruj4pEIZxkWLNFvjBIL3-13" value="6" style="text;html=1;strokeColor=none;fillColor=none;align=center;verticalAlign=middle;whiteSpace=wrap;fontFamily=Times New Roman;fontSize=30;fontColor=#5C5C5C;" vertex="1" parent="1">
          <mxGeometry x="660" y="150" width="40" height="20" as="geometry" />
        </mxCell>
        <mxCell id="Ruj4pEIZxkWLNFvjBIL3-14" value="7" style="text;html=1;strokeColor=none;fillColor=none;align=center;verticalAlign=middle;whiteSpace=wrap;fontFamily=Times New Roman;fontSize=30;fontColor=#5C5C5C;" vertex="1" parent="1">
          <mxGeometry x="740" y="150" width="40" height="20" as="geometry" />
        </mxCell>
        <mxCell id="Ruj4pEIZxkWLNFvjBIL3-34" style="edgeStyle=none;sketch=0;orthogonalLoop=1;jettySize=auto;html=1;exitX=0.5;exitY=0;exitDx=0;exitDy=0;entryX=0.5;entryY=1;entryDx=0;entryDy=0;fontColor=#5C5C5C;endArrow=classic;endFill=1;strokeColor=#006658;fillColor=#21C0A5;" edge="1" parent="1" source="Ruj4pEIZxkWLNFvjBIL3-15" target="Ruj4pEIZxkWLNFvjBIL3-6">
          <mxGeometry relative="1" as="geometry" />
        </mxCell>
        <mxCell id="Ruj4pEIZxkWLNFvjBIL3-15" value="" style="whiteSpace=wrap;html=1;fillColor=#21C0A5;strokeColor=#006658;fontColor=#5C5C5C;" vertex="1" parent="1">
          <mxGeometry x="240" y="320" width="80" height="80" as="geometry" />
        </mxCell>
        <mxCell id="Ruj4pEIZxkWLNFvjBIL3-35" style="edgeStyle=none;sketch=0;orthogonalLoop=1;jettySize=auto;html=1;exitX=0.5;exitY=0;exitDx=0;exitDy=0;entryX=0.5;entryY=1;entryDx=0;entryDy=0;fontColor=#5C5C5C;endArrow=classic;endFill=1;strokeColor=#006658;fillColor=#21C0A5;" edge="1" parent="1" source="Ruj4pEIZxkWLNFvjBIL3-16" target="Ruj4pEIZxkWLNFvjBIL3-7">
          <mxGeometry relative="1" as="geometry" />
        </mxCell>
        <mxCell id="Ruj4pEIZxkWLNFvjBIL3-16" value="" style="whiteSpace=wrap;html=1;fillColor=#21C0A5;strokeColor=#006658;fontColor=#5C5C5C;" vertex="1" parent="1">
          <mxGeometry x="320" y="320" width="80" height="80" as="geometry" />
        </mxCell>
        <mxCell id="Ruj4pEIZxkWLNFvjBIL3-29" style="sketch=0;orthogonalLoop=1;jettySize=auto;html=1;exitX=0.5;exitY=0;exitDx=0;exitDy=0;entryX=0.5;entryY=1;entryDx=0;entryDy=0;fontColor=#5C5C5C;strokeColor=#006658;fillColor=#21C0A5;" edge="1" parent="1" source="Ruj4pEIZxkWLNFvjBIL3-17" target="Ruj4pEIZxkWLNFvjBIL3-1">
          <mxGeometry relative="1" as="geometry" />
        </mxCell>
        <mxCell id="Ruj4pEIZxkWLNFvjBIL3-17" value="" style="whiteSpace=wrap;html=1;fillColor=#21C0A5;strokeColor=#006658;fontColor=#5C5C5C;" vertex="1" parent="1">
          <mxGeometry x="400" y="320" width="80" height="80" as="geometry" />
        </mxCell>
        <mxCell id="Ruj4pEIZxkWLNFvjBIL3-30" style="sketch=0;orthogonalLoop=1;jettySize=auto;html=1;exitX=0.5;exitY=0;exitDx=0;exitDy=0;entryX=0.5;entryY=1;entryDx=0;entryDy=0;fontColor=#5C5C5C;strokeColor=#006658;fillColor=#21C0A5;" edge="1" parent="1" source="Ruj4pEIZxkWLNFvjBIL3-18" target="Ruj4pEIZxkWLNFvjBIL3-2">
          <mxGeometry relative="1" as="geometry" />
        </mxCell>
        <mxCell id="Ruj4pEIZxkWLNFvjBIL3-18" value="" style="whiteSpace=wrap;html=1;fillColor=#21C0A5;strokeColor=#006658;fontColor=#5C5C5C;" vertex="1" parent="1">
          <mxGeometry x="480" y="320" width="80" height="80" as="geometry" />
        </mxCell>
        <mxCell id="Ruj4pEIZxkWLNFvjBIL3-31" style="sketch=0;orthogonalLoop=1;jettySize=auto;html=1;exitX=0.5;exitY=0;exitDx=0;exitDy=0;entryX=0.5;entryY=1;entryDx=0;entryDy=0;fontColor=#5C5C5C;strokeColor=#006658;fillColor=#21C0A5;" edge="1" parent="1" source="Ruj4pEIZxkWLNFvjBIL3-19" target="Ruj4pEIZxkWLNFvjBIL3-3">
          <mxGeometry relative="1" as="geometry" />
        </mxCell>
        <mxCell id="Ruj4pEIZxkWLNFvjBIL3-19" value="" style="whiteSpace=wrap;html=1;fillColor=#21C0A5;strokeColor=#006658;fontColor=#5C5C5C;" vertex="1" parent="1">
          <mxGeometry x="560" y="320" width="80" height="80" as="geometry" />
        </mxCell>
        <mxCell id="Ruj4pEIZxkWLNFvjBIL3-32" style="sketch=0;orthogonalLoop=1;jettySize=auto;html=1;exitX=0.5;exitY=0;exitDx=0;exitDy=0;entryX=0.5;entryY=1;entryDx=0;entryDy=0;fontColor=#5C5C5C;strokeColor=#006658;fillColor=#21C0A5;endArrow=classic;endFill=1;" edge="1" parent="1" source="Ruj4pEIZxkWLNFvjBIL3-20" target="Ruj4pEIZxkWLNFvjBIL3-4">
          <mxGeometry relative="1" as="geometry" />
        </mxCell>
        <mxCell id="Ruj4pEIZxkWLNFvjBIL3-20" value="" style="whiteSpace=wrap;html=1;fillColor=#21C0A5;strokeColor=#006658;fontColor=#5C5C5C;" vertex="1" parent="1">
          <mxGeometry x="640" y="320" width="80" height="80" as="geometry" />
        </mxCell>
        <mxCell id="Ruj4pEIZxkWLNFvjBIL3-33" style="edgeStyle=none;sketch=0;orthogonalLoop=1;jettySize=auto;html=1;exitX=0.5;exitY=0;exitDx=0;exitDy=0;entryX=0.5;entryY=1;entryDx=0;entryDy=0;fontColor=#5C5C5C;endArrow=classic;endFill=1;strokeColor=#006658;fillColor=#21C0A5;" edge="1" parent="1" source="Ruj4pEIZxkWLNFvjBIL3-21" target="Ruj4pEIZxkWLNFvjBIL3-5">
          <mxGeometry relative="1" as="geometry" />
        </mxCell>
        <mxCell id="Ruj4pEIZxkWLNFvjBIL3-21" value="" style="whiteSpace=wrap;html=1;fillColor=#21C0A5;strokeColor=#006658;fontColor=#5C5C5C;" vertex="1" parent="1">
          <mxGeometry x="720" y="320" width="80" height="80" as="geometry" />
        </mxCell>
        <mxCell id="Ruj4pEIZxkWLNFvjBIL3-22" value="6" style="text;html=1;strokeColor=none;fillColor=none;align=center;verticalAlign=middle;whiteSpace=wrap;fontFamily=Times New Roman;fontSize=30;fontColor=#5C5C5C;" vertex="1" parent="1">
          <mxGeometry x="260" y="350" width="40" height="20" as="geometry" />
        </mxCell>
        <mxCell id="Ruj4pEIZxkWLNFvjBIL3-23" value="7" style="text;html=1;strokeColor=none;fillColor=none;align=center;verticalAlign=middle;whiteSpace=wrap;fontFamily=Times New Roman;fontSize=30;fontColor=#5C5C5C;" vertex="1" parent="1">
          <mxGeometry x="340" y="350" width="40" height="20" as="geometry" />
        </mxCell>
        <mxCell id="Ruj4pEIZxkWLNFvjBIL3-24" value="1" style="text;html=1;strokeColor=none;fillColor=none;align=center;verticalAlign=middle;whiteSpace=wrap;fontFamily=Times New Roman;fontSize=30;fontColor=#5C5C5C;" vertex="1" parent="1">
          <mxGeometry x="420" y="350" width="40" height="20" as="geometry" />
        </mxCell>
        <mxCell id="Ruj4pEIZxkWLNFvjBIL3-25" value="2" style="text;html=1;strokeColor=none;fillColor=none;align=center;verticalAlign=middle;whiteSpace=wrap;fontFamily=Times New Roman;fontSize=30;fontColor=#5C5C5C;" vertex="1" parent="1">
          <mxGeometry x="500" y="350" width="40" height="20" as="geometry" />
        </mxCell>
        <mxCell id="Ruj4pEIZxkWLNFvjBIL3-26" value="3" style="text;html=1;strokeColor=none;fillColor=none;align=center;verticalAlign=middle;whiteSpace=wrap;fontFamily=Times New Roman;fontSize=30;fontColor=#5C5C5C;" vertex="1" parent="1">
          <mxGeometry x="580" y="350" width="40" height="20" as="geometry" />
        </mxCell>
        <mxCell id="Ruj4pEIZxkWLNFvjBIL3-27" value="4" style="text;html=1;strokeColor=none;fillColor=none;align=center;verticalAlign=middle;whiteSpace=wrap;fontFamily=Times New Roman;fontSize=30;fontColor=#5C5C5C;" vertex="1" parent="1">
          <mxGeometry x="660" y="350" width="40" height="20" as="geometry" />
        </mxCell>
        <mxCell id="Ruj4pEIZxkWLNFvjBIL3-28" value="5" style="text;html=1;strokeColor=none;fillColor=none;align=center;verticalAlign=middle;whiteSpace=wrap;fontFamily=Times New Roman;fontSize=30;fontColor=#5C5C5C;" vertex="1" parent="1">
          <mxGeometry x="740" y="350" width="40" height="20" as="geometry" />
        </mxCell>
        <mxCell id="Ruj4pEIZxkWLNFvjBIL3-36" value="1" style="text;html=1;strokeColor=none;fillColor=none;align=center;verticalAlign=middle;whiteSpace=wrap;fontFamily=Times New Roman;fontSize=30;fontColor=#5C5C5C;" vertex="1" parent="1">
          <mxGeometry x="340" y="70" width="40" height="20" as="geometry" />
        </mxCell>
        <mxCell id="Ruj4pEIZxkWLNFvjBIL3-37" value="2" style="text;html=1;strokeColor=none;fillColor=none;align=center;verticalAlign=middle;whiteSpace=wrap;fontFamily=Times New Roman;fontSize=30;fontColor=#5C5C5C;" vertex="1" parent="1">
          <mxGeometry x="420" y="70" width="40" height="20" as="geometry" />
        </mxCell>
        <mxCell id="Ruj4pEIZxkWLNFvjBIL3-38" value="3" style="text;html=1;strokeColor=none;fillColor=none;align=center;verticalAlign=middle;whiteSpace=wrap;fontFamily=Times New Roman;fontSize=30;fontColor=#5C5C5C;" vertex="1" parent="1">
          <mxGeometry x="500" y="70" width="40" height="20" as="geometry" />
        </mxCell>
        <mxCell id="Ruj4pEIZxkWLNFvjBIL3-39" value="4" style="text;html=1;strokeColor=none;fillColor=none;align=center;verticalAlign=middle;whiteSpace=wrap;fontFamily=Times New Roman;fontSize=30;fontColor=#5C5C5C;" vertex="1" parent="1">
          <mxGeometry x="580" y="70" width="40" height="20" as="geometry" />
        </mxCell>
        <mxCell id="Ruj4pEIZxkWLNFvjBIL3-40" value="5" style="text;html=1;strokeColor=none;fillColor=none;align=center;verticalAlign=middle;whiteSpace=wrap;fontFamily=Times New Roman;fontSize=30;fontColor=#5C5C5C;" vertex="1" parent="1">
          <mxGeometry x="660" y="70" width="40" height="20" as="geometry" />
        </mxCell>
        <mxCell id="Ruj4pEIZxkWLNFvjBIL3-41" value="6" style="text;html=1;strokeColor=none;fillColor=none;align=center;verticalAlign=middle;whiteSpace=wrap;fontFamily=Times New Roman;fontSize=30;fontColor=#5C5C5C;" vertex="1" parent="1">
          <mxGeometry x="740" y="70" width="40" height="20" as="geometry" />
        </mxCell>
        <mxCell id="Ruj4pEIZxkWLNFvjBIL3-42" value="0" style="text;html=1;strokeColor=none;fillColor=none;align=center;verticalAlign=middle;whiteSpace=wrap;fontFamily=Times New Roman;fontSize=30;fontColor=#5C5C5C;" vertex="1" parent="1">
          <mxGeometry x="260" y="70" width="40" height="20" as="geometry" />
        </mxCell>
        <mxCell id="Ruj4pEIZxkWLNFvjBIL3-43" value="1" style="text;html=1;strokeColor=none;fillColor=none;align=center;verticalAlign=middle;whiteSpace=wrap;fontFamily=Times New Roman;fontSize=30;fontColor=#5C5C5C;" vertex="1" parent="1">
          <mxGeometry x="340" y="430" width="40" height="20" as="geometry" />
        </mxCell>
        <mxCell id="Ruj4pEIZxkWLNFvjBIL3-44" value="2" style="text;html=1;strokeColor=none;fillColor=none;align=center;verticalAlign=middle;whiteSpace=wrap;fontFamily=Times New Roman;fontSize=30;fontColor=#5C5C5C;" vertex="1" parent="1">
          <mxGeometry x="420" y="430" width="40" height="20" as="geometry" />
        </mxCell>
        <mxCell id="Ruj4pEIZxkWLNFvjBIL3-45" value="3" style="text;html=1;strokeColor=none;fillColor=none;align=center;verticalAlign=middle;whiteSpace=wrap;fontFamily=Times New Roman;fontSize=30;fontColor=#5C5C5C;" vertex="1" parent="1">
          <mxGeometry x="500" y="430" width="40" height="20" as="geometry" />
        </mxCell>
        <mxCell id="Ruj4pEIZxkWLNFvjBIL3-46" value="4" style="text;html=1;strokeColor=none;fillColor=none;align=center;verticalAlign=middle;whiteSpace=wrap;fontFamily=Times New Roman;fontSize=30;fontColor=#5C5C5C;" vertex="1" parent="1">
          <mxGeometry x="580" y="430" width="40" height="20" as="geometry" />
        </mxCell>
        <mxCell id="Ruj4pEIZxkWLNFvjBIL3-47" value="5" style="text;html=1;strokeColor=none;fillColor=none;align=center;verticalAlign=middle;whiteSpace=wrap;fontFamily=Times New Roman;fontSize=30;fontColor=#5C5C5C;" vertex="1" parent="1">
          <mxGeometry x="660" y="430" width="40" height="20" as="geometry" />
        </mxCell>
        <mxCell id="Ruj4pEIZxkWLNFvjBIL3-48" value="6" style="text;html=1;strokeColor=none;fillColor=none;align=center;verticalAlign=middle;whiteSpace=wrap;fontFamily=Times New Roman;fontSize=30;fontColor=#5C5C5C;" vertex="1" parent="1">
          <mxGeometry x="740" y="430" width="40" height="20" as="geometry" />
        </mxCell>
        <mxCell id="Ruj4pEIZxkWLNFvjBIL3-49" value="0" style="text;html=1;strokeColor=none;fillColor=none;align=center;verticalAlign=middle;whiteSpace=wrap;fontFamily=Times New Roman;fontSize=30;fontColor=#5C5C5C;" vertex="1" parent="1">
          <mxGeometry x="260" y="430" width="40" height="20" as="geometry" />
        </mxCell>
        <mxCell id="Ruj4pEIZxkWLNFvjBIL3-50" value="6" style="text;html=1;strokeColor=none;fillColor=none;align=center;verticalAlign=middle;whiteSpace=wrap;fontFamily=Times New Roman;fontSize=30;fontColor=#5C5C5C;" vertex="1" parent="1">
          <mxGeometry x="260" y="350" width="40" height="20" as="geometry" />
        </mxCell>
        <mxCell id="Ruj4pEIZxkWLNFvjBIL3-51" value="old_nums" style="text;html=1;strokeColor=none;fillColor=none;align=center;verticalAlign=middle;whiteSpace=wrap;fontFamily=Times New Roman;fontSize=30;fontColor=#5C5C5C;" vertex="1" parent="1">
          <mxGeometry x="140" y="150" width="40" height="20" as="geometry" />
        </mxCell>
        <mxCell id="Ruj4pEIZxkWLNFvjBIL3-52" value="nums" style="text;html=1;strokeColor=none;fillColor=none;align=center;verticalAlign=middle;whiteSpace=wrap;fontFamily=Times New Roman;fontSize=30;fontColor=#5C5C5C;" vertex="1" parent="1">
          <mxGeometry x="140" y="350" width="40" height="20" as="geometry" />
        </mxCell>
      </root>
    </mxGraphModel>
  </diagram>
</mxfile>
